<svg width="30" height="29" viewBox="0 0 30 29" fill="none" xmlns="http://www.w3.org/2000/svg">
<circle cx="4" cy="4" r="4" transform="matrix(-1 0 0 1 14.7227 3)" stroke="#4D4D4D" stroke-width="1.5"/>
<path d="M3.72266 16.9347C3.72266 16.0743 4.26351 15.3068 5.07375 15.0175V15.0175C8.7267 13.7128 12.7186 13.7128 16.3716 15.0175V15.0175C17.1818 15.3068 17.7227 16.0743 17.7227 16.9347V18.2502C17.7227 19.4376 16.671 20.3498 15.4954 20.1818L14.541 20.0455C12.0083 19.6837 9.43701 19.6837 6.90428 20.0455L5.94986 20.1818C4.77436 20.3498 3.72266 19.4376 3.72266 18.2502V16.9347Z" stroke="#4D4D4D" stroke-width="1.5"/>
<path d="M20.9131 13H25.6641" stroke="#4D4D4D" stroke-width="1.5" stroke-linecap="round" stroke-linejoin="round"/>
<path d="M23.2891 10.6363L23.2891 15.3635" stroke="#4D4D4D" stroke-width="1.5" stroke-linecap="round" stroke-linejoin="round"/>
</svg>
