<svg width="415" height="155" viewBox="0 0 415 155" fill="none" xmlns="http://www.w3.org/2000/svg">
<path d="M410.153 154.36C410.352 154.552 410.669 154.546 410.86 154.347L413.98 151.103C414.171 150.904 414.165 150.587 413.966 150.396C413.767 150.205 413.45 150.211 413.259 150.41L410.486 153.293L407.603 150.52C407.404 150.329 407.087 150.335 406.896 150.534C406.705 150.733 406.711 151.05 406.91 151.241L410.153 154.36ZM0 1C205.238 1 307.488 26.5875 358.548 58.4865C384.058 74.4239 396.779 91.9302 403.197 108.609C409.622 125.305 409.75 141.209 410 154.01L411 153.99C410.75 141.208 410.628 125.133 404.131 108.25C397.627 91.3511 384.755 73.6803 359.077 57.6385C307.762 25.5792 205.262 0 0 0V1Z" fill="black"/>
</svg>
